<?xml version="1.0" encoding="UTF-8" standalone="no"?>
<!-- Generated by Microsoft Visio, SVG Export W2N logo sketch 1.svg Page-1 -->

<svg
   xmlns:v="http://schemas.microsoft.com/visio/2003/SVGExtensions/"
   xmlns:dc="http://purl.org/dc/elements/1.1/"
   xmlns:cc="http://creativecommons.org/ns#"
   xmlns:rdf="http://www.w3.org/1999/02/22-rdf-syntax-ns#"
   xmlns:svg="http://www.w3.org/2000/svg"
   xmlns="http://www.w3.org/2000/svg"
   xmlns:sodipodi="http://sodipodi.sourceforge.net/DTD/sodipodi-0.dtd"
   xmlns:inkscape="http://www.inkscape.org/namespaces/inkscape"
   width="348.35635"
   height="82.411835"
   viewBox="0 0 278.68516 65.929566"
   xml:space="preserve"
   class="st4"
   id="svg2"
   version="1.1"
   inkscape:version="0.91 r13725"
   sodipodi:docname="w2n logo with text.svg"
   style="font-size:12px;overflow:visible;color-interpolation-filters:sRGB;fill:none;fill-rule:evenodd;stroke-linecap:square;stroke-miterlimit:3"
   inkscape:export-filename="/Users/jonathan/Code/Industry-experience-studio-project/assets/branding/brand kit/w2n logo with text [500px].png"
   inkscape:export-xdpi="546.03809"
   inkscape:export-ydpi="546.03809"><metadata
     id="metadata36"><rdf:RDF><cc:Work
         rdf:about=""><dc:format>image/svg+xml</dc:format><dc:type
           rdf:resource="http://purl.org/dc/dcmitype/StillImage" /><dc:title></dc:title></cc:Work></rdf:RDF></metadata><sodipodi:namedview
     pagecolor="#ffffff"
     bordercolor="#666666"
     borderopacity="1"
     objecttolerance="10"
     gridtolerance="10"
     guidetolerance="10"
     inkscape:pageopacity="0"
     inkscape:pageshadow="2"
     inkscape:window-width="1633"
     inkscape:window-height="962"
     id="namedview34"
     showgrid="false"
     inkscape:zoom="2.5371857"
     inkscape:cx="210.35796"
     inkscape:cy="88.921154"
     inkscape:window-x="0"
     inkscape:window-y="0"
     inkscape:window-maximized="0"
     inkscape:current-layer="g16"
     inkscape:snap-page="false"
     fit-margin-top="5"
     fit-margin-left="5"
     fit-margin-right="5"
     fit-margin-bottom="5"
     showguides="true"
     units="px"><inkscape:grid
       type="xygrid"
       id="grid3366"
       originx="-107.54237"
       originy="-311.18974" /><sodipodi:guide
       position="-0.36194144,-3.430635"
       orientation="0,90"
       id="guide3372" /><sodipodi:guide
       position="71.638078,-3.430635"
       orientation="-90,0"
       id="guide3374" /><sodipodi:guide
       position="71.638078,68.569472"
       orientation="0,-90"
       id="guide3376" /><sodipodi:guide
       position="-0.36194144,68.569472"
       orientation="90,0"
       id="guide3378" /><sodipodi:guide
       position="-0.36194144,-3.430635"
       orientation="0,450"
       id="guide3388" /><sodipodi:guide
       position="359.63816,-3.430635"
       orientation="-90,0"
       id="guide3390" /><sodipodi:guide
       position="359.63816,68.569472"
       orientation="0,-450"
       id="guide3392" /><sodipodi:guide
       position="-0.36194144,68.569472"
       orientation="90,0"
       id="guide3394" /></sodipodi:namedview><v:documentProperties
     v:langID="3081"
     v:metric="true"
     v:viewMarkup="false"><v:userDefs><v:ud
         v:nameU="msvNoAutoConnect"
         v:val="VT0(1):26" /></v:userDefs></v:documentProperties><style
     type="text/css"
     id="style4"><![CDATA[
		.st1 {fill:url(#grad3-4);stroke:none;stroke-linecap:butt;stroke-width:0.75}
		.st2 {fill:none;stroke:none;stroke-width:1}
		.st3 {fill:#94b6d2;font-family:Calibri;font-size:1.00001em}
		.st4 {fill:none;fill-rule:evenodd;font-size:12px;overflow:visible;stroke-linecap:square;stroke-miterlimit:3}
	]]></style><defs
     id="Patterns_And_Gradients" /><g
     v:mID="0"
     v:index="1"
     v:groupContext="foregroundPage"
     id="g16"
     transform="translate(-107.5425,-464.77075)"><v:userDefs><v:ud
         v:nameU="msvThemeOrder"
         v:val="VT0(0):26" /></v:userDefs><title
       id="title18">Page-1</title><v:pageProperties
       v:drawingScale="0.0393701"
       v:pageScale="0.0393701"
       v:drawingUnits="24"
       v:shadowOffsetX="8.50394"
       v:shadowOffsetY="-8.50394" /><g
       id="shape1-1"
       v:mID="1"
       v:groupContext="shape"
       transform="translate(126.67605,-318.33633)"
       style="fill:#2699f2;fill-opacity:1;stroke:#2699f2;stroke-opacity:1"><title
         id="title21">Home</title><v:userDefs><v:ud
           v:nameU="msvShapeCategories"
           v:prompt=""
           v:val="VT4(Icon)" /><v:ud
           v:nameU="visVersion"
           v:prompt=""
           v:val="VT0(15):26" /></v:userDefs><path
         d="m 17.286241,787.64254 -13.95,14.22 0,-8.15 -3.99,0 0,12.21 -13.95,14.22 2.99,2.94 4.98,-5.07 0,26.33 47.84,0 0,-26.33 4.98,5.07 2.99,-2.94 z m 11.96,52.65 -9.97,0 0,-22.28 9.97,0 z m 7.97,0 -5.98,0 0,-24.3 -13.95,0 0,24.3 -19.93,0 0,-26.33 19.93,-20.25 19.93,20.25 z m -33.88,-14.18 9.96,0 0,-10.12 -9.96,0 z m 1.99,-8.1 5.98,0 0,6.08 -5.98,0 z"
         class="st1"
         id="path23"
         inkscape:connector-curvature="0"
         style="fill:#2699f2;fill-opacity:1;stroke:#2699f2;stroke-width:0.75;stroke-linecap:butt;stroke-opacity:1;image-rendering:optimizeSpeed"
         sodipodi:nodetypes="ccccccccccccccccccccccccccccccccccccccc" /></g><circle
       style="fill:#2699f2;fill-opacity:1"
       id="path3370"
       cx="148.12138"
       cy="511.30222"
       r="1.3279555" /><g
       transform="matrix(0.80000114,0,0,0.80000122,110.69357,476.71395)"
       style="font-style:normal;font-weight:normal;font-size:40px;line-height:125%;font-family:sans-serif;letter-spacing:0px;word-spacing:0px;fill:#2699f2;fill-opacity:1;stroke:none;stroke-width:0;stroke-linecap:butt;stroke-linejoin:miter;stroke-miterlimit:3;stroke-dasharray:none;stroke-opacity:1"
       id="flowRoot3380"><path
         d="m 121.26539,59.403895 9.44,-27.96 -1.8,0 -8.44,25.96 -8.52,-25.96 -1.76,0 -8.48,25.96 -8.479999,-25.96 -1.88,0 9.439999,27.96 1.76,0 8.52,-25.6 8.48,25.6 1.72,0 z"
         style="font-style:normal;font-variant:normal;font-weight:200;font-stretch:normal;font-size:40px;line-height:125%;font-family:Montserrat;-inkscape-font-specification:'Montserrat, Ultra-Light';text-align:start;writing-mode:lr-tb;text-anchor:start;fill:#2699f2;fill-opacity:1;stroke:none;stroke-width:0;stroke-miterlimit:3;stroke-dasharray:none;stroke-opacity:1"
         id="path4296"
         inkscape:connector-curvature="0" /><path
         d="m 145.54727,38.523895 c -4.2,0.08 -7.16,1.96 -8.56,5.48 l 0,-14.28 -1.68,0 0,29.68 1.68,0 0,-10.2 c 0,-5.44 3,-8.88 8.16,-9 4.28,0 6.8,2.52 6.8,6.8 l 0,12.4 1.68,0 0,-12.72 c 0,-5.08 -3,-8.16 -8.08,-8.16 z"
         style="font-style:normal;font-variant:normal;font-weight:200;font-stretch:normal;font-size:40px;line-height:125%;font-family:Montserrat;-inkscape-font-specification:'Montserrat, Ultra-Light';text-align:start;writing-mode:lr-tb;text-anchor:start;fill:#2699f2;fill-opacity:1;stroke:none;stroke-width:0;stroke-miterlimit:3;stroke-dasharray:none;stroke-opacity:1"
         id="path4298"
         inkscape:connector-curvature="0" /><path
         d="m 169.19914,38.523895 c -5.88,0 -10.16,4.36 -10.16,10.48 0,6.12 4.28,10.44 10.16,10.44 3.32,0 6.16,-1.24 8.08,-3.32 l -0.96,-1.08 c -1.68,1.84 -4.2,2.88 -7.04,2.88 -4.84,0 -8.36,-3.4 -8.6,-8.48 l 18.2,0 c 0.12,-6.44 -3.56,-10.92 -9.68,-10.92 z m -8.48,9.44 c 0.4,-4.72 3.8,-7.92 8.48,-7.92 4.76,0 7.84,3.2 8.16,7.92 l -16.64,0 z"
         style="font-style:normal;font-variant:normal;font-weight:200;font-stretch:normal;font-size:40px;line-height:125%;font-family:Montserrat;-inkscape-font-specification:'Montserrat, Ultra-Light';text-align:start;writing-mode:lr-tb;text-anchor:start;fill:#2699f2;fill-opacity:1;stroke:none;stroke-width:0;stroke-miterlimit:3;stroke-dasharray:none;stroke-opacity:1"
         id="path4300"
         inkscape:connector-curvature="0" /><path
         d="m 186.55289,38.563895 -1.68,0 0,20.84 1.68,0 0,-11.28 c 0.36,-4.84 3.16,-7.88 7.76,-7.88 l 0,-1.72 c -3.72,0.08 -6.44,1.92 -7.76,5.28 l 0,-5.24 z"
         style="font-style:normal;font-variant:normal;font-weight:200;font-stretch:normal;font-size:40px;line-height:125%;font-family:Montserrat;-inkscape-font-specification:'Montserrat, Ultra-Light';text-align:start;writing-mode:lr-tb;text-anchor:start;fill:#2699f2;fill-opacity:1;stroke:none;stroke-width:0;stroke-miterlimit:3;stroke-dasharray:none;stroke-opacity:1"
         id="path4302"
         inkscape:connector-curvature="0" /><path
         d="m 206.77727,38.523895 c -5.88,0 -10.16,4.36 -10.16,10.48 0,6.12 4.28,10.44 10.16,10.44 3.32,0 6.16,-1.24 8.08,-3.32 l -0.96,-1.08 c -1.68,1.84 -4.2,2.88 -7.04,2.88 -4.84,0 -8.36,-3.4 -8.6,-8.48 l 18.2,0 c 0.12,-6.44 -3.56,-10.92 -9.68,-10.92 z m -8.48,9.44 c 0.4,-4.72 3.8,-7.92 8.48,-7.92 4.76,0 7.84,3.2 8.16,7.92 l -16.64,0 z"
         style="font-style:normal;font-variant:normal;font-weight:200;font-stretch:normal;font-size:40px;line-height:125%;font-family:Montserrat;-inkscape-font-specification:'Montserrat, Ultra-Light';text-align:start;writing-mode:lr-tb;text-anchor:start;fill:#2699f2;fill-opacity:1;stroke:none;stroke-width:0;stroke-miterlimit:3;stroke-dasharray:none;stroke-opacity:1"
         id="path4304"
         inkscape:connector-curvature="0" /><path
         d="m 228.89102,31.403895 c -3.08,0 -6.32,1.36 -8.68,3.72 l 0.84,1.32 c 2.12,-2.16 5.04,-3.44 7.68,-3.44 4.08,0 6.56,1.96 6.56,5.2 0,2.04 -1.64,5 -4.32,7.72 l -10.68,11.8 0,1.68 18.6,0 0,-1.64 -16.6,0 9.84,-10.76 c 3,-3.16 4.84,-6.48 4.84,-8.96 0,-4.12 -3.12,-6.64 -8.08,-6.64 z"
         style="font-style:normal;font-variant:normal;font-weight:200;font-stretch:normal;font-size:40px;line-height:125%;font-family:Montserrat;-inkscape-font-specification:'Montserrat, Ultra-Light';text-align:start;writing-mode:lr-tb;text-anchor:start;fill:#2699f2;fill-opacity:1;stroke:none;stroke-width:0;stroke-miterlimit:3;stroke-dasharray:none;stroke-opacity:1"
         id="path4306"
         inkscape:connector-curvature="0" /><path
         d="m 255.61977,38.523895 c -4.16,0.08 -7.12,1.92 -8.52,5.36 l 0,-5.32 -1.68,0 0,20.84 1.68,0 0,-11.28 c 0.36,-4.8 3.32,-7.8 8.12,-7.92 4.28,0 6.8,2.52 6.8,6.8 l 0,12.4 1.68,0 0,-12.72 c 0,-5.08 -3,-8.16 -8.08,-8.16 z"
         style="font-style:normal;font-variant:normal;font-weight:200;font-stretch:normal;font-size:40px;line-height:125%;font-family:Montserrat;-inkscape-font-specification:'Montserrat, Ultra-Light';text-align:start;writing-mode:lr-tb;text-anchor:start;fill:#2699f2;fill-opacity:1;stroke:none;stroke-width:0;stroke-miterlimit:3;stroke-dasharray:none;stroke-opacity:1"
         id="path4308"
         inkscape:connector-curvature="0" /><path
         d="m 279.27727,38.523895 c -5.88,0 -10.16,4.36 -10.16,10.48 0,6.12 4.28,10.44 10.16,10.44 3.32,0 6.16,-1.24 8.08,-3.32 l -0.96,-1.08 c -1.68,1.84 -4.2,2.88 -7.04,2.88 -4.84,0 -8.36,-3.4 -8.6,-8.48 l 18.2,0 c 0.12,-6.44 -3.56,-10.92 -9.68,-10.92 z m -8.48,9.44 c 0.4,-4.72 3.8,-7.92 8.48,-7.92 4.76,0 7.84,3.2 8.16,7.92 l -16.64,0 z"
         style="font-style:normal;font-variant:normal;font-weight:200;font-stretch:normal;font-size:40px;line-height:125%;font-family:Montserrat;-inkscape-font-specification:'Montserrat, Ultra-Light';text-align:start;writing-mode:lr-tb;text-anchor:start;fill:#2699f2;fill-opacity:1;stroke:none;stroke-width:0;stroke-miterlimit:3;stroke-dasharray:none;stroke-opacity:1"
         id="path4310"
         inkscape:connector-curvature="0" /><path
         d="m 299.65914,47.403895 -6.44,-8.84 -1.92,0 7.28,10.08 -7.88,10.76 1.92,0 7,-9.48 6.96,9.48 1.92,0 -7.8,-10.76 7.28,-10.08 -1.88,0 -6.44,8.84 z"
         style="font-style:normal;font-variant:normal;font-weight:200;font-stretch:normal;font-size:40px;line-height:125%;font-family:Montserrat;-inkscape-font-specification:'Montserrat, Ultra-Light';text-align:start;writing-mode:lr-tb;text-anchor:start;fill:#2699f2;fill-opacity:1;stroke:none;stroke-width:0;stroke-miterlimit:3;stroke-dasharray:none;stroke-opacity:1"
         id="path4312"
         inkscape:connector-curvature="0" /><path
         d="m 323.09539,56.603895 c -1.08,0.76 -2.32,1.2 -3.52,1.2 -2.16,0.04 -3.32,-1.4 -3.32,-4.36 l 0,-12.92 7.08,0 0,-1.44 -7.08,0 0,-5.16 -1.6,0 0,5.16 -3.04,0 0,1.44 3.04,0 0,13.12 c 0,3.92 1.76,5.84 4.72,5.8 1.56,0 3.04,-0.56 4.36,-1.48 l -0.64,-1.36 z"
         style="font-style:normal;font-variant:normal;font-weight:200;font-stretch:normal;font-size:40px;line-height:125%;font-family:Montserrat;-inkscape-font-specification:'Montserrat, Ultra-Light';text-align:start;writing-mode:lr-tb;text-anchor:start;fill:#2699f2;fill-opacity:1;stroke:none;stroke-width:0;stroke-miterlimit:3;stroke-dasharray:none;stroke-opacity:1"
         id="path4314"
         inkscape:connector-curvature="0" /><path
         d="m 326.41727,38.443895 c 0.2,-3.2 2.36,-4.8 5.72,-4.8 3.32,0 5.68,1.56 5.68,4.8 0,6.12 -6.32,5.68 -6.32,12.52 l 1.4,0 c 0,-6.32 6.52,-5.92 6.52,-12.68 0,-4.2 -3.08,-6.2 -7.16,-6.2 -4.16,0 -7,2.24 -7.28,6.28 l 1.44,0.08 z m 5.68,18.4 c -0.76,0 -1.36,0.6 -1.36,1.4 0,0.84 0.6,1.48 1.36,1.48 0.76,0 1.36,-0.64 1.36,-1.48 0,-0.8 -0.6,-1.4 -1.36,-1.4 z"
         style="font-style:normal;font-variant:normal;font-weight:200;font-stretch:normal;font-size:40px;line-height:125%;font-family:Montserrat;-inkscape-font-specification:'Montserrat, Ultra-Light';text-align:start;writing-mode:lr-tb;text-anchor:start;fill:#2699f2;fill-opacity:1;stroke:none;stroke-width:0;stroke-miterlimit:3;stroke-dasharray:none;stroke-opacity:1"
         id="path4316"
         inkscape:connector-curvature="0" /></g></g></svg>