<?xml version="1.0" encoding="UTF-8" standalone="no"?>
<svg
   xmlns:dc="http://purl.org/dc/elements/1.1/"
   xmlns:cc="http://creativecommons.org/ns#"
   xmlns:rdf="http://www.w3.org/1999/02/22-rdf-syntax-ns#"
   xmlns:svg="http://www.w3.org/2000/svg"
   xmlns="http://www.w3.org/2000/svg"
   xmlns:sodipodi="http://sodipodi.sourceforge.net/DTD/sodipodi-0.dtd"
   xmlns:inkscape="http://www.inkscape.org/namespaces/inkscape"
   width="1828"
   height="912"
   id="svg3382"
   version="1.1"
   inkscape:version="0.91 r13725"
   sodipodi:docname="3d-with-text-transparent.svg"
   inkscape:export-filename="/Users/jonathan/Code/Industry-experience-studio-project/assets/branding/WIP/3d-with-text-transparent.png"
   inkscape:export-xdpi="90"
   inkscape:export-ydpi="90"><metadata
   id="metadata3388">
  <rdf:RDF>
    <cc:Work
       rdf:about="">
      <dc:format>image/svg+xml</dc:format>
      <dc:type
         rdf:resource="http://purl.org/dc/dcmitype/StillImage" />
      <dc:title></dc:title>
    </cc:Work>
  </rdf:RDF>
</metadata>
<defs
   id="defs3386" />
<sodipodi:namedview
   pagecolor="#2b3c8e"
   bordercolor="#666666"
   borderopacity="1"
   objecttolerance="10"
   gridtolerance="10"
   guidetolerance="10"
   inkscape:pageopacity="0"
   inkscape:pageshadow="2"
   inkscape:window-width="1578"
   inkscape:window-height="1003"
   id="namedview3384"
   showgrid="false"
   inkscape:zoom="0.67900063"
   inkscape:cx="-3660.6155"
   inkscape:cy="19647.055"
   inkscape:window-x="15"
   inkscape:window-y="0"
   inkscape:window-maximized="0"
   inkscape:current-layer="svg3382">
  <inkscape:grid
     type="xygrid"
     id="grid3598" />
</sodipodi:namedview>


z<flowRoot
   xml:space="preserve"
   id="flowRoot3471"
   style="font-style:normal;font-weight:normal;font-size:82.81858826px;line-height:125%;font-family:sans-serif;letter-spacing:0px;word-spacing:0px;fill:#ffffff;fill-opacity:1;stroke:none;stroke-width:1px;stroke-linecap:butt;stroke-linejoin:miter;stroke-opacity:1;"
   transform="matrix(1.7511725,0,0,1.7511725,2933.4075,14770.017)"><flowRegion
     id="flowRegion3473"><rect
       id="rect3475"
       width="2420.1182"
       height="797.7063"
       x="-4798.146"
       y="-19349.943"
       style="fill:#ffffff;" /></flowRegion><flowPara
     id="flowPara3477"
     style="font-style:normal;font-variant:normal;font-weight:normal;font-stretch:normal;font-size:250px;font-family:'PF Mechanica A Pro';-inkscape-font-specification:'PF Mechanica A Pro';text-align:center;text-anchor:middle;fill:#ffffff;">Truss</flowPara></flowRoot><g
   inkscape:groupmode="layer"
   id="layer3"
   inkscape:label="Shadow"
   style="display:inline">
  <path
     inkscape:connector-curvature="0"
     id="path3461"
     d="m -4342.1597,-18547.22 c -0.5156,-0.645 -1.228,-2.12 -1.5831,-3.278 -1.025,-3.344 -113.9684,-196.372 -116.5035,-199.112 l -2.283,-2.469 2.8023,-5.031 c 1.5412,-2.768 35.3563,-76.329 75.1446,-163.47 39.7882,-87.14 74.4227,-162.575 76.9654,-167.631 8.4403,-16.786 98.6715,-215.731 99.7918,-220.025 0.9107,-3.491 1.5201,-4.269 3.5323,-4.511 2.0374,-0.244 2.7622,0.356 4.4687,3.701 1.1203,2.196 12.1858,18.148 24.59,35.448 12.4042,17.301 26.7702,37.362 31.9246,44.581 5.1543,7.219 16.1942,22.617 24.5331,34.219 8.339,11.601 28.1454,39.234 44.0144,61.406 15.8689,22.172 30.4173,42.211 32.3296,44.531 4.2716,5.183 22.0799,29.898 176.648,245.156 26.6579,37.125 49.851,68.806 51.5403,70.401 l 3.0713,2.901 14.9387,0.609 c 8.2163,0.334 153.3138,4.833 322.4388,9.996 169.125,5.163 311.4023,9.635 316.1718,9.937 8.1826,0.519 10.7346,1.476 7.0313,2.638 -0.9024,0.284 -267,44.838 -591.3281,99.01 -437.5976,73.091 -590.6017,98.967 -593.232,100.329 -4.1232,2.135 -5.7098,2.285 -7.0073,0.664 z m 361.986,-68.247 c 653.5207,-108.277 774.6222,-128.398 777.3158,-129.148 3.3926,-0.945 -142.9535,-1.841 -435.69,-2.666 l -216.315,-0.61 -210.7163,89.818 c -115.8939,49.4 -211.117,90.174 -211.6069,90.609 -0.5248,0.466 -0.1924,0.791 0.8093,0.791 0.9349,0 134.2263,-21.958 296.2031,-48.794 z m -126.2405,-45.526 c 114.8778,-46.72 209.4813,-85.28 210.23,-85.69 0.8709,-0.477 -0.48,-0.935 -3.75,-1.27 -2.8112,-0.288 -91.0951,-0.716 -196.1864,-0.95 -145.0222,-0.323 -191.1698,-0.162 -191.4676,0.667 -0.6334,1.765 -29.4885,168.564 -29.4885,170.461 0,0.949 0.4036,1.727 0.8968,1.727 0.4933,0 94.8878,-38.226 209.7657,-84.945 z m -216.8048,-15.715 c 6.9718,-39.121 12.4467,-71.5 12.1663,-71.953 -0.6453,-1.045 -120.1183,-1.1 -120.7633,-0.06 -0.2612,0.423 20.8939,33.593 47.0112,73.712 37.1511,57.068 47.6411,72.561 48.1979,71.185 0.3915,-0.967 6.416,-33.766 13.3879,-72.887 z m 951.1423,-74.653 c 1.2439,-0.804 1.2409,-0.91 -0.026,-0.923 -0.7878,0 -95.4988,-2.948 -210.4688,-6.534 -114.9698,-3.586 -213.8878,-6.621 -219.8175,-6.745 l -10.7812,-0.226 -14.8,6.398 c -8.14,3.52 -14.5386,6.66 -14.219,6.98 0.3196,0.32 80.8077,0.811 178.8625,1.092 98.0548,0.28 203.383,0.59 234.0627,0.688 34.7395,0.111 56.3117,-0.164 57.1875,-0.73 z m -494.7303,-6.918 c 7.1093,-3.031 12.8046,-5.612 12.6563,-5.734 -0.1484,-0.123 -85.2776,2.022 -189.176,4.767 -103.8984,2.744 -193.5469,5.109 -199.2187,5.255 -20.6493,0.533 118.3852,1.253 239.0625,1.239 l 123.75,-0.01 12.9259,-5.512 z m -488.2384,-7.252 c 25.7812,-0.583 47.1504,-1.325 47.4871,-1.648 0.3366,-0.324 3.5924,-17.252 7.2351,-37.619 3.6427,-20.368 16.3432,-91.454 28.2234,-157.969 11.8802,-66.516 22.231,-123.469 23.0017,-126.563 2.2534,-9.045 24.0241,-133.671 23.6438,-135.349 -0.2321,-1.023 -0.8245,-0.446 -1.7999,1.756 -0.7997,1.804 -14.6444,31.546 -30.7659,66.093 -16.1216,34.547 -30.8737,66.61 -32.7825,71.25 -1.9088,4.641 -36.0233,78.56 -75.8099,164.264 -39.7865,85.705 -72.3392,156.325 -72.3392,156.933 0,0.833 4.5779,0.959 18.5156,0.51 10.1836,-0.329 39.6094,-1.074 65.3907,-1.658 z m 229.6875,-5.492 c 84.0468,-2.042 183.1875,-4.425 220.3125,-5.295 37.125,-0.87 67.6949,-1.747 67.9332,-1.949 0.2383,-0.202 -0.1451,-1.297 -0.852,-2.434 -0.7069,-1.136 -50.9305,-70.625 -111.608,-154.419 -60.6774,-83.794 -110.858,-153.354 -111.5125,-154.577 -1.0501,-1.962 -38.6037,-53.852 -111.3455,-153.851 -12.565,-17.274 -23.1323,-31.318 -23.4829,-31.209 -0.6389,0.199 -8.5268,44.23 -24.4007,136.209 -36.1888,209.688 -63.2819,366.508 -63.6939,368.671 -0.4571,2.401 -0.2734,2.578 2.6732,2.573 1.7402,0 71.9297,-1.676 155.9766,-3.719 z"
     style="fill:#d4aa00" />
</g>
<g
   inkscape:groupmode="layer"
   id="layer1"
   inkscape:label="Text" />
<g
   inkscape:groupmode="layer"
   id="layer2"
   inkscape:label="Tetrahedron"
   style="display:inline">
  <path
     inkscape:connector-curvature="0"
     id="path3457"
     d="m -4341.5095,-18550.419 c -0.7137,-1.877 -0.5917,-3.249 0.4919,-5.533 0.7925,-1.67 1.4409,-4.039 1.4409,-5.264 0,-1.225 0.6275,-3.124 1.3943,-4.219 1.2808,-1.828 3.9294,-15.756 17.3499,-91.238 2.5211,-14.18 6.2739,-35.063 8.3396,-46.407 2.0657,-11.343 6.1216,-33.914 9.0131,-50.156 2.8916,-16.242 7.5351,-42.187 10.3189,-57.656 2.7839,-15.469 7.2247,-40.36 9.8686,-55.313 2.6439,-14.953 6.8538,-38.578 9.3553,-52.5 2.5015,-13.922 5.66,-31.851 7.0189,-39.843 2.6406,-15.531 7.027,-40.165 16.7768,-94.219 3.3481,-18.563 7.9978,-44.508 10.3325,-57.656 2.3348,-13.149 5.9487,-33.399 8.0309,-45 9.2203,-51.373 13.3805,-75.832 13.7135,-80.625 l 0.3583,-5.157 -1.1945,3.732 c -0.9505,2.969 -1.6533,3.735 -3.4409,3.75 -2.0122,0.02 -3.3119,2.315 -12.4672,22.05 -5.6214,12.117 -15.7353,33.843 -22.4752,48.281 -23.7122,50.793 -26.3029,56.381 -33.0361,71.25 -3.7359,8.25 -13.7634,29.976 -22.2833,48.281 -29.7753,63.971 -63.8591,137.481 -71.5054,154.219 -6.9789,15.277 -13.7895,30.002 -47.2114,102.073 -8.288,17.873 -10.1918,22.74 -9.4421,24.141 0.8571,1.602 2.2234,1.753 15.6716,1.734 8.103,-0.01 29.2339,-0.426 46.9576,-0.92 18.1712,-0.506 32.8568,-0.545 33.6735,-0.09 0.8749,0.49 -6.1315,1.039 -17.6937,1.387 -80.861,2.434 -77.8706,2.285 -79.7224,3.961 -0.97,0.878 -1.7636,1.948 -1.7636,2.377 0,1.077 42.6047,0.968 81.5625,-0.208 17.7891,-0.537 36.9085,-1.108 42.4877,-1.267 10.4207,-0.299 12.3097,-0.935 11.7266,-3.95 -0.315,-1.629 -1.3961,-1.723 -16.9629,-1.475 -10.9801,0.175 -16.6264,-0.06 -16.6264,-0.703 0,-0.594 3.5402,-1.005 9.1406,-1.062 5.0274,-0.05 13.2922,-0.369 18.3663,-0.704 l 9.2257,-0.609 -0.5435,3.282 c -0.2989,1.804 -0.5546,4.125 -0.5681,5.156 -0.014,1.031 -0.408,2.48 -0.8764,3.221 -0.7141,1.128 -1.0957,1.143 -2.3616,0.09 -1.2469,-1.035 -5.3823,-1.068 -23.7433,-0.188 -12.2284,0.587 -38.2647,1.288 -57.8584,1.558 -45.077,0.623 -53.9063,1.177 -53.9063,3.384 0,0.905 101.6441,167.329 103.2847,169.111 1.3492,1.466 2.3179,-0.911 3.5761,-8.774 0.6297,-3.935 1.5104,-7.788 1.9573,-8.561 1.139,-1.972 1.0963,-1.514 -1.0056,10.781 -1.0312,6.032 -1.875,12.648 -1.875,14.702 0,5.035 -1.925,4.271 -3.3538,-1.329 -0.6052,-2.373 -2.9897,-7.407 -5.2987,-11.187 -2.3091,-3.781 -15.0935,-24.592 -28.4099,-46.249 -13.3163,-21.656 -28.9274,-47.179 -34.6914,-56.718 -5.7639,-9.54 -16.7221,-27.469 -24.3514,-39.844 -7.6294,-12.375 -14.7557,-24.075 -15.8363,-25.999 -2.6059,-4.641 -4.0693,-5.044 -5.9987,-1.653 -0.8751,1.538 -1.9075,2.799 -2.2942,2.802 -1.0088,0 -0.8691,-2.593 0.1739,-3.238 0.4823,-0.298 1.9024,-2.749 3.1558,-5.446 4.6288,-9.961 71.5001,-155.74 110.8363,-241.622 22.3179,-48.727 50.1547,-109.477 61.8596,-135 54.6835,-119.243 67.0213,-146.35 67.0213,-147.255 0,-0.536 1.3817,-3.588 3.0705,-6.782 1.6887,-3.194 4.1027,-9.077 5.3642,-13.073 1.3295,-4.211 2.8116,-7.265 3.5254,-7.265 0.6773,0 2.0903,2.003 3.1399,4.452 1.0496,2.448 2.8696,5.718 4.0443,7.265 4.0274,5.305 104.7493,145.797 109.22,152.345 5.3374,7.818 -1.4571,-0.527 -8.5409,-10.49 -4.2857,-6.028 -12.8546,-17.762 -19.0421,-26.077 -11.5436,-15.512 -19.6662,-26.904 -29.7436,-41.714 -3.1576,-4.641 -8.1376,-11.602 -11.0668,-15.469 -2.9291,-3.867 -8.6302,-11.672 -12.669,-17.344 -21.618,-30.359 -27.8747,-38.956 -28.7379,-39.49 -1.3568,-0.838 -0.028,3.331 1.9785,6.209 0.8989,1.289 2.1148,3.737 2.7019,5.44 1.0991,3.188 27.6121,40.698 42.8717,60.654 4.7313,6.187 11.5169,15.469 15.0791,20.625 3.5622,5.156 8.9261,12.75 11.9196,16.875 2.9936,4.125 12.1846,16.992 20.4244,28.594 8.2399,11.601 19.4661,27.21 24.9472,34.687 5.4811,7.477 12.4301,16.969 15.4422,21.094 3.0121,4.125 10.7884,14.672 17.2805,23.437 6.4922,8.766 13.6337,18.762 15.8701,22.214 2.2364,3.452 6.5155,9.421 9.5091,13.264 2.9936,3.843 7.0369,9.456 8.985,12.473 4.5436,7.038 15.365,21.822 20.8277,28.456 2.3356,2.835 6.6199,8.742 9.5207,13.125 2.9008,4.382 13.97,19.931 24.5981,34.552 10.6282,14.621 21.2254,29.387 23.5493,32.813 2.324,3.425 7.4197,10.447 11.3237,15.603 3.9041,5.157 12.1285,16.547 18.2766,25.313 6.148,8.765 13.5936,19.101 16.5457,22.969 2.952,3.867 8.5665,11.4 12.4766,16.74 7.2126,9.85 10.2286,12.185 5.6518,4.375 -3.3088,-5.646 -18.4286,-27.133 -38.6076,-54.865 -1.6883,-2.321 -7.4414,-10.336 -12.7847,-17.813 -34.3172,-48.018 -54.1755,-75.504 -59.2673,-82.031 -3.2177,-4.125 -9.3239,-12.563 -13.5693,-18.75 -4.2454,-6.188 -10.1955,-14.625 -13.2223,-18.75 -3.0269,-4.125 -7.9464,-11.027 -10.9322,-15.338 -2.9859,-4.31 -9.3849,-13.17 -14.2201,-19.687 -4.8352,-6.518 -11.3239,-15.647 -14.4193,-20.288 -3.0955,-4.64 -6.7715,-9.703 -8.1689,-11.25 -2.4904,-2.756 -8.807,-12.656 -8.0756,-12.656 0.2042,0 2.5944,3.059 5.3114,6.797 2.717,3.738 8.402,11.437 12.6331,17.109 4.2312,5.672 23.432,32.25 42.6685,59.063 19.2365,26.812 44.672,62.25 56.5233,78.75 11.8513,16.5 23.5141,32.742 25.9173,36.094 2.4032,3.351 15.4763,21.492 29.0512,40.312 13.575,18.82 34.7799,48.352 47.122,65.625 12.3421,17.273 23.6652,32.386 25.1624,33.584 3.2732,2.618 3.4062,3.581 0.6127,4.434 -1.1601,0.355 -115.1718,48.107 -253.3593,106.117 -138.1875,58.01 -253.9922,106.486 -257.3438,107.724 -3.3516,1.238 -7.6278,3.084 -9.5026,4.102 -4.3315,2.352 -4.4197,2.342 -5.5552,-0.644 z m 42.7141,-18.863 c 12.8906,-5.388 29.3437,-12.216 36.5625,-15.173 38.1354,-15.624 102.6211,-42.995 105.2502,-44.675 1.7369,-1.109 1.945,-1.694 1.1389,-3.201 -0.5425,-1.013 -1.6209,-1.842 -2.3963,-1.842 -1.453,0 -27.096,10.121 -66.4928,26.244 -12.375,5.064 -37.6875,15.395 -56.25,22.957 -18.5625,7.562 -35.6706,15.089 -38.0178,16.727 -4.0437,2.821 -11.201,10.034 -11.201,11.287 0,0.734 2.6906,-0.322 31.4063,-12.324 z m -30.2752,4.394 5.1641,-6.183 2.4745,-13.036 c 1.361,-7.169 3.5636,-19.785 4.8947,-28.035 1.3311,-8.25 3.183,-18.797 4.1153,-23.438 0.9324,-4.64 2.8141,-15.609 4.1817,-24.375 1.3675,-8.765 3.5271,-21.211 4.799,-27.656 2.5919,-13.135 2.2268,-11.119 12.479,-68.906 4.1165,-23.203 7.7586,-44.297 8.0934,-46.875 0.3348,-2.578 1.2109,-7.852 1.9468,-11.719 0.736,-3.867 2.1512,-11.672 3.145,-17.344 6.5977,-37.656 8.4231,-48.351 8.9604,-52.5 0.3339,-2.578 1.6136,-9.75 2.8439,-15.937 2.8252,-14.209 9.8392,-56.34 9.8165,-58.965 -0.02,-2.341 -5.234,-10.367 -5.9658,-9.183 -0.4461,0.721 -3.3483,15.852 -7.497,39.085 -1.983,11.105 -13.3806,73.117 -16.0248,87.188 -1.2597,6.703 -2.9543,16.406 -3.7658,21.562 -0.8115,5.157 -3.1333,18.235 -5.1596,29.063 -4.7677,25.478 -9.2076,50.521 -15.9559,90 -2.9967,17.531 -6.7537,39.047 -8.3488,47.812 -1.5952,8.766 -5.0178,27.961 -7.6059,42.657 -2.588,14.695 -5.7498,32.429 -7.0262,39.408 -1.2763,6.979 -2.3206,13.286 -2.3206,14.015 0,1.511 -0.2771,1.783 6.7561,-6.638 z m 60.0207,-27.659 c 24.89,-10.105 62.1295,-25.253 82.7545,-33.661 36.5358,-14.896 139.3582,-56.712 197.8125,-80.447 73.2302,-29.734 98.4988,-40.15 100.3547,-41.366 1.1012,-0.722 3.8395,-1.807 6.085,-2.412 5.3115,-1.43 32.7377,-12.699 34.0147,-13.976 0.5407,-0.541 0.7039,-1.262 0.3627,-1.604 -0.3413,-0.341 -52.4147,0.72 -115.7188,2.358 -63.3041,1.638 -155.5983,4.018 -205.0983,5.288 -49.5,1.271 -96.7341,2.629 -104.9646,3.018 l -14.9645,0.707 -0.7497,3.281 c -0.4123,1.805 -2.6635,14.25 -5.0027,27.656 -2.3392,13.407 -5.2879,30.282 -6.5528,37.5 -1.2648,7.219 -4.4053,25.36 -6.9789,40.313 -2.5736,14.953 -6.2985,36.543 -8.2776,47.978 -3.6854,21.292 -3.6997,23.741 -0.1389,23.741 0.9946,0 22.1728,-8.268 47.0627,-18.374 z m 150.8108,-52.762 c 4.7972,-1.666 13.5875,-5.324 54.2874,-22.592 18.5064,-7.852 39.2871,-16.483 55.3125,-22.974 10.8751,-4.405 37.7955,-15.745 62.3438,-26.261 8.7656,-3.755 23.3203,-9.855 32.3437,-13.554 21.686,-8.892 60.6558,-25.349 66.7969,-28.209 1.4179,-0.66 2.5781,-1.563 2.5781,-2.005 0,-1.332 -4.2882,0.124 -23.4375,7.959 -10.0547,4.114 -21.2344,8.631 -24.8437,10.038 -3.6094,1.407 -13.3125,5.414 -21.5625,8.905 -8.25,3.491 -20.0625,8.34 -26.25,10.776 -9.45,3.719 -23.7684,9.504 -66.0938,26.701 -2.8359,1.152 -15.0703,6.205 -27.1875,11.229 -12.1172,5.024 -34.8984,14.321 -50.625,20.66 -39.9712,16.112 -41.7025,16.943 -40.7127,19.522 0.7493,1.952 0.8778,1.949 7.0503,-0.195 z m -46.4938,-115.019 c 50.5312,-1.283 130.6875,-3.407 178.125,-4.72 47.4375,-1.313 96.375,-2.561 108.75,-2.774 29.0596,-0.5 38.6711,-1.031 42.4218,-2.344 3.4023,-1.19 4.0089,-3.263 1.2146,-4.15 -1.5713,-0.499 -1.6834,-0.909 -0.787,-2.876 1.2137,-2.664 1.9376,-2.839 3.5756,-0.865 0.6522,0.786 1.3591,1.256 1.5707,1.044 0.4143,-0.414 -8.7232,-13.747 -15.188,-22.16 -7.8929,-10.273 -26.4087,-35.969 -31.0743,-43.125 -1.8489,-2.836 -5.5596,-8.11 -8.246,-11.719 -15.832,-21.272 -22.0561,-29.788 -27.6648,-37.853 -3.4507,-4.962 -11.7271,-16.563 -18.3921,-25.78 -6.6649,-9.216 -15.6372,-21.649 -19.9384,-27.629 -4.3013,-5.979 -9.3953,-12.782 -11.3202,-15.117 -1.9248,-2.336 -6.1226,-8.043 -9.3284,-12.684 -10.7527,-15.565 -46.2698,-65.023 -60.1827,-83.805 -5.9615,-8.048 -12.6075,-17.163 -14.7688,-20.257 -2.1613,-3.094 -6.255,-8.789 -9.0972,-12.656 -5.4541,-7.422 -10.707,-14.805 -22.0109,-30.938 -3.7935,-5.414 -11.1165,-15.539 -16.2733,-22.5 -19.0185,-25.672 -26.2692,-35.638 -36.8998,-50.72 -13.3872,-18.993 -16.6936,-23.504 -28.8608,-39.382 -7.2188,-9.42 -14.6303,-18.629 -16.4699,-20.466 -1.8397,-1.836 -4.8766,-5.659 -6.7487,-8.494 -1.872,-2.836 -4.0582,-5.895 -4.8582,-6.797 -0.8,-0.903 -1.4545,-1.793 -1.4545,-1.979 0,-0.185 -1.5199,-1.949 -3.3775,-3.918 -5.3631,-5.687 -5.8538,-4.772 -9.8668,18.396 -1.9127,11.043 -4.3747,25.141 -5.4711,31.329 -1.0963,6.187 -3.4183,19.476 -5.16,29.531 -1.7417,10.055 -6.5492,37.688 -10.6834,61.406 -4.1341,23.719 -10.7297,61.899 -14.6568,84.844 -3.9271,22.945 -9.8409,57.117 -13.1417,75.938 -3.3008,18.82 -10.4799,60.164 -15.9535,91.875 -5.4737,31.71 -12.1727,70.312 -14.8867,85.781 -3.2277,18.396 -4.651,28.694 -4.1147,29.769 0.6903,1.385 1.621,1.551 5.8837,1.05 2.785,-0.327 5.8278,-0.235 6.7617,0.205 1.1761,0.554 -0.4608,0.951 -5.3244,1.294 -5.8005,0.408 -7.0785,0.789 -7.3449,2.19 -0.8332,4.38 -0.16,4.557 15.0645,3.954 7.8666,-0.311 55.6466,-1.615 106.1779,-2.898 z m -97.9688,-4.158 c -0.9897,-0.64 0.2599,-0.894 4.2188,-0.857 4.0007,0.04 5.0835,0.284 3.75,0.857 -2.5574,1.099 -6.2683,1.099 -7.9688,0 z m 19.6875,-0.937 c 0.7734,-0.5 2.25,-0.909 3.2813,-0.909 1.0312,0 2.5078,0.409 3.2812,0.909 1.0105,0.653 0.087,0.908 -3.2812,0.908 -3.3684,0 -4.2918,-0.255 -3.2813,-0.908 z m 19.2188,0 c -0.3525,-0.571 1.0027,-0.932 3.4602,-0.924 2.9537,0.01 3.6617,0.259 2.6335,0.924 -1.8402,1.189 -5.3588,1.189 -6.0937,0 z m 19.9218,-0.621 c 0.6446,-0.26 1.6992,-0.26 2.3438,0 0.6445,0.26 0.1172,0.472 -1.1719,0.472 -1.2891,0 -1.8164,-0.212 -1.1719,-0.472 z m 19.4532,-0.317 c -0.3344,-0.541 0.5342,-0.931 2.054,-0.923 2.0448,0.01 2.3191,0.217 1.2272,0.923 -1.8012,1.164 -2.5618,1.164 -3.2812,0 z m 7.7929,-0.64 c 0.6768,-0.271 1.4854,-0.238 1.7969,0.07 0.3115,0.311 -0.2422,0.533 -1.2305,0.492 -1.0921,-0.04 -1.3143,-0.267 -0.5664,-0.566 z m 283.0832,-6.602 c 1.685,-0.209 4.2163,-0.204 5.625,0.01 1.4088,0.214 0.03,0.384 -3.0636,0.379 -3.0938,0 -4.2464,-0.18 -2.5614,-0.389 z m 15.6864,-0.258 c 1.5468,-0.394 7.0312,-0.716 12.1875,-0.716 6.1438,0 8.4056,0.247 6.5625,0.716 -1.5469,0.394 -7.0313,0.716 -12.1875,0.716 -6.1439,0 -8.4057,-0.247 -6.5625,-0.716 z m -566.9385,10.078 c 0.8025,-0.993 23.3134,-49.319 30.4596,-65.39 3.2644,-7.342 14.792,-31.865 22.4756,-47.813 3.6021,-7.477 8.6474,-18.234 11.2118,-23.906 2.5645,-5.672 5.9542,-13.055 7.5327,-16.406 2.9853,-6.339 8.9713,-19.296 22.5213,-48.75 4.3884,-9.54 9.9391,-21.483 12.335,-26.541 4.3441,-9.172 12.2255,-26.147 21.6283,-46.584 16.8203,-36.56 23.3501,-50.647 35.6351,-76.875 3.7434,-7.993 10.0801,-21.704 14.0816,-30.469 4.0015,-8.766 10.1335,-22.055 13.6267,-29.531 3.4932,-7.477 8.5467,-18.446 11.23,-24.375 2.6833,-5.93 8.2071,-17.829 12.2753,-26.443 6.2791,-13.296 7.6821,-17.191 9.2868,-25.782 1.0397,-5.565 2.0702,-10.918 2.2901,-11.895 0.8719,-3.872 -1.4849,0.462 -6.8293,12.557 -5.5184,12.489 -14.3394,31.728 -42.3393,92.344 -7.86,17.015 -16.0857,34.945 -18.2795,39.844 -2.1937,4.898 -7.888,17.343 -12.654,27.656 -8.4082,18.193 -23.7486,51.543 -34.7142,75.469 -2.9541,6.445 -9.3955,20.578 -14.3142,31.406 -4.9188,10.828 -16.1995,35.297 -25.0684,54.375 -8.8689,19.078 -19.1906,41.648 -22.9371,50.156 -3.7464,8.508 -8.1822,18.422 -9.8571,22.031 -1.675,3.61 -3.7782,8.25 -4.6739,10.313 -0.8956,2.062 -5.8703,12.82 -11.0547,23.906 -8.6852,18.571 -23.8638,51.611 -27.0261,58.828 -1.2418,2.834 -1.2112,3.047 0.4377,3.047 0.9751,0 2.1991,-0.527 2.7202,-1.172 z m 619.4385,-4.453 c 1.2363,-0.531 1.3959,-0.823 0.4687,-0.857 -0.7734,-0.03 -2.0391,0.357 -2.8125,0.857 -1.7137,1.107 -0.2335,1.107 2.3438,0 z m 0.3697,-12.386 c -1.734,-2.727 -4.903,-6.856 -7.0422,-9.176 -3.748,-4.066 -11.8659,-14.91 -18.707,-24.991 -1.8045,-2.66 -3.964,-5.402 -4.7987,-6.094 -1.3652,-1.133 -1.3601,-0.954 0.051,1.775 0.8627,1.669 2.8321,4.473 4.3764,6.232 3.6453,4.152 11.8119,15.901 17.7892,25.594 4.396,7.128 9.9149,13.187 11.0125,12.089 0.2594,-0.259 -0.947,-2.703 -2.681,-5.429 z m -411.5636,-288.551 c 1.5395,-8.508 3.0921,-18 3.4502,-21.094 0.358,-3.094 0.9825,-6.513 1.3876,-7.597 0.4051,-1.085 2.2485,-11.21 4.0964,-22.5 4.3961,-26.86 10.9401,-64.915 16.4272,-95.528 1.0167,-5.672 2.7325,-15.586 3.813,-22.031 1.0805,-6.446 2.5715,-14.461 3.3134,-17.813 0.7419,-3.352 2.2443,-11.524 3.3388,-18.161 1.9342,-11.729 1.9439,-12.242 0.3453,-18.281 -2.2008,-8.315 -2.9486,-9.669 -3.6843,-6.67 -0.7863,3.205 -3.7176,19.668 -7.0921,39.831 -2.9918,17.875 -5.4213,31.878 -8.4586,48.75 -3.9823,22.121 -6.759,37.948 -8.4702,48.281 -0.9821,5.93 -2.8228,15.844 -4.0905,22.031 -3.9466,19.263 -5.3423,26.811 -7.1081,38.438 -0.9396,6.187 -2.3553,14.183 -3.1459,17.769 -0.7907,3.586 -2.1437,12.141 -3.0068,19.012 -1.3659,10.872 -1.3949,12.701 -0.2236,14.105 0.7402,0.888 1.9185,2.879 2.6185,4.426 l 1.2728,2.813 1.2088,-5.156 c 0.6649,-2.836 2.4685,-12.118 4.0081,-20.625 z m 19.4905,-175.489 c -0.2993,-0.748 -0.5214,-0.526 -0.5664,0.567 -0.041,0.988 0.1809,1.542 0.4924,1.23 0.3115,-0.311 0.3448,-1.12 0.074,-1.797 z m 2.5893,-9.778 c 0.7095,-4.064 2.5572,-13.883 4.106,-21.819 1.5488,-7.937 2.5962,-15.003 2.3274,-15.703 -0.8286,-2.16 -2.1631,-1.409 -2.1631,1.217 0,1.37 -0.8244,7.17 -1.8321,12.89 -2.4937,14.156 -4.7304,28.485 -4.7304,30.305 0,3.318 1.0734,0.09 2.2922,-6.89 z m 147.4251,137.22 c -2.7922,-3.776 -3.7205,-5.391 -3.0989,-5.391 0.2635,0 1.7852,1.898 3.3816,4.219 3.3262,4.834 3.1047,5.752 -0.2827,1.172 z m -9.0923,-12.891 c -1.1015,-1.547 -1.7917,-2.812 -1.5339,-2.812 0.2578,0 1.3699,1.265 2.4714,2.812 1.1015,1.547 1.7917,2.813 1.5339,2.813 -0.2578,0 -1.3699,-1.266 -2.4714,-2.813 z"
     style="fill:#343434" />
  <path
     inkscape:connector-curvature="0"
     id="path3459"
     d="m -4341.1868,-18548.115 c -0.5351,-0.668 -1.2653,-2.168 -1.6225,-3.333 -0.3573,-1.166 -13.5349,-24.158 -29.2836,-51.094 -15.7486,-26.936 -41.3009,-70.702 -56.7828,-97.256 -15.4819,-26.555 -28.9341,-49.153 -29.8937,-50.217 -2.0939,-2.323 -2.2041,-3.972 -0.3985,-5.967 1.5829,-1.749 -0.2758,2.28 83.4932,-181.004 35.9387,-78.633 67.3618,-147.187 69.8293,-152.344 2.4674,-5.156 8.8021,-18.867 14.0771,-30.468 5.275,-11.602 23.841,-52.313 41.2578,-90.469 41.7807,-91.532 40.2701,-88.169 42.7425,-95.156 2.7363,-7.734 4.7426,-8.39 7.6095,-2.489 1.7949,3.694 62.0263,88.131 132.5154,185.77 13.7732,19.078 75.89,105.351 138.0372,191.719 62.1472,86.367 114.0854,158.054 115.4183,159.304 2.5878,2.427 3.085,3.821 1.3628,3.821 -1.2983,0 -32.6975,13.118 -34.3197,14.338 -0.6389,0.481 -0.9577,1.204 -0.7085,1.607 0.6136,0.993 -1.8868,1.867 -5.3404,1.867 -1.6435,0 -41.962,16.624 -95.7827,39.492 -81.9399,34.816 -285.4945,121.536 -324.7412,138.348 -13.5464,5.803 -17.5954,8.723 -12.0963,8.723 2.043,0 458.6592,-75.526 906.6187,-149.957 105.6554,-17.555 192.2944,-31.918 192.5313,-31.918 0.2368,0 0.2099,-0.844 -0.06,-1.875 -0.4716,-1.804 -0.029,-1.875 11.6094,-1.875 6.6548,0 12.0987,0.316 12.0975,0.703 0,0.386 -253.6537,43.043 -563.6719,94.792 -310.0183,51.749 -571.8424,95.523 -581.8314,97.275 -15.6892,2.752 -21.7489,4.415 -30.6724,8.419 -0.5619,0.252 -1.4595,-0.09 -1.9946,-0.756 z m 236.3488,-112.301 c 115.3531,-46.918 210.6516,-85.797 211.7746,-86.398 1.123,-0.601 2.5571,-1.608 3.187,-2.238 0.6299,-0.63 2.7479,-1.42 4.7068,-1.755 4.4892,-0.768 34.9679,-12.854 34.9679,-13.866 0,-1.041 11.8272,-1.291 -206.7991,4.364 -240.507,6.221 -230.0759,5.862 -230.0759,7.924 0,0.872 -0.3881,1.987 -0.8625,2.477 -0.4743,0.49 -3.7063,17.344 -7.1822,37.453 -3.4758,20.11 -10.1823,58.711 -14.9034,85.782 -4.721,27.07 -8.4048,49.746 -8.1862,50.39 0.2186,0.645 1.127,1.172 2.0188,1.172 0.8917,0 96.0011,-38.387 211.3542,-85.305 z m -231.0004,58.821 c 1.4109,-3.361 26.4078,-144.908 26.0847,-147.707 -0.3499,-3.032 7.052,-2.848 -68.9434,-1.711 -38.4984,0.577 -54.8438,1.129 -55.4531,1.875 -0.5768,0.707 15.2179,25.747 47.532,75.355 26.6177,40.863 48.733,74.297 49.145,74.297 0.4121,0 1.1477,-0.949 1.6348,-2.109 z m -24.9059,-162.414 c 29.35,-0.748 53.7058,-1.703 54.1239,-2.121 0.4181,-0.418 12.798,-68.036 27.5108,-150.261 14.7127,-82.226 27.8129,-155.197 29.1113,-162.157 10.8529,-58.182 26.771,-149.311 26.4312,-151.317 -0.2284,-1.347 -1.8864,1.275 -5.2771,8.348 -8.4072,17.535 -59.2431,127.092 -62.4245,134.531 -1.6539,3.867 -23.2857,50.695 -48.0707,104.063 -86.2384,185.689 -100.5498,216.795 -100.5498,218.548 0,1.642 0.8896,1.763 12.8906,1.745 7.0899,-0.01 36.9043,-0.631 66.2543,-1.379 z m 330.501,-7.984 c 119.9733,-2.908 193.905,-5.044 194.4802,-5.619 1.1424,-1.142 14.7342,17.932 -109.5546,-153.749 -57.6728,-79.664 -107.1031,-148.008 -109.8452,-151.875 -2.7421,-3.867 -6.6257,-9.352 -8.6302,-12.187 -2.0045,-2.836 -24.9249,-34.477 -50.9342,-70.313 -26.0093,-35.836 -54.6507,-75.369 -63.6476,-87.851 -8.9969,-12.482 -16.8774,-22.712 -17.5121,-22.734 -0.6347,-0.02 -1.3818,0.909 -1.6604,2.069 -0.5571,2.321 -15.4419,87.272 -25.7487,146.954 -3.6063,20.882 -19.0679,110.182 -34.359,198.444 -15.2911,88.261 -27.5877,161.035 -27.3258,161.719 0.3897,1.017 5.9889,1.115 30.8308,0.538 16.6951,-0.388 117.4531,-2.816 223.9068,-5.396 z m 757.5416,23.445 -7.0312,-0.6 5.6718,-0.169 c 3.1196,-0.09 6.0971,-0.594 6.6166,-1.114 1.1502,-1.15 75.3701,0.806 76.7272,2.022 1.0098,0.905 -71.1781,0.782 -81.9844,-0.139 z"
     style="fill:#ffcc00" />
</g>
</svg>
