<?xml version="1.0" encoding="UTF-8" standalone="no"?>
<!DOCTYPE svg PUBLIC "-//W3C//DTD SVG 1.1//EN" "http://www.w3.org/Graphics/SVG/1.1/DTD/svg11.dtd">
<!-- Generated by Microsoft Visio, SVG Export W2N logo sketch 1.svg Page-1 -->
<svg xmlns="http://www.w3.org/2000/svg" xmlns:xlink="http://www.w3.org/1999/xlink" xmlns:ev="http://www.w3.org/2001/xml-events"
		xmlns:v="http://schemas.microsoft.com/visio/2003/SVGExtensions/" width="8.26772in" height="11.6929in"
		viewBox="0 0 595.276 841.89" xml:space="preserve" color-interpolation-filters="sRGB" class="st4">
	<v:documentProperties v:langID="3081" v:metric="true" v:viewMarkup="false">
		<v:userDefs>
			<v:ud v:nameU="msvNoAutoConnect" v:val="VT0(1):26"/>
		</v:userDefs>
	</v:documentProperties>

	<style type="text/css">
	<![CDATA[
		.st1 {fill:url(#grad3-4);stroke:none;stroke-linecap:butt;stroke-width:0.75}
		.st2 {fill:none;stroke:none;stroke-width:1}
		.st3 {fill:#94b6d2;font-family:Calibri;font-size:1.00001em}
		.st4 {fill:none;fill-rule:evenodd;font-size:12px;overflow:visible;stroke-linecap:square;stroke-miterlimit:3}
	]]>
	</style>

	<defs id="Patterns_And_Gradients">
		<radialGradient id="grad3-4" cx="0.5" cy="0.5" r="0.73">
			<stop offset="0" stop-color="#78a3c6" stop-opacity="1"/>
			<stop offset="0.23" stop-color="#78a3c6" stop-opacity="1"/>
			<stop offset="0.69" stop-color="#548bb7" stop-opacity="1"/>
			<stop offset="0.97" stop-color="#4a82b0" stop-opacity="1"/>
		</radialGradient>
	</defs>
	<g v:mID="0" v:index="1" v:groupContext="foregroundPage">
		<v:userDefs>
			<v:ud v:nameU="msvThemeOrder" v:val="VT0(0):26"/>
		</v:userDefs>
		<title>Page-1</title>
		<v:pageProperties v:drawingScale="0.0393701" v:pageScale="0.0393701" v:drawingUnits="24" v:shadowOffsetX="8.50394"
				v:shadowOffsetY="-8.50394"/>
		<g id="shape1-1" v:mID="1" v:groupContext="shape" transform="translate(70.8661,-325.977)">
			<title>Home</title>
			<v:userDefs>
				<v:ud v:nameU="msvShapeCategories" v:prompt="" v:val="VT4(Icon)"/>
				<v:ud v:nameU="visVersion" v:prompt="" v:val="VT0(15):26"/>
			</v:userDefs>
			<path d="M31.89 785.19 L17.94 799.41 L17.94 791.26 L13.95 791.26 L13.95 803.47 L0 817.69 L2.99 820.63 L7.97 815.56 L7.97
						 841.89 L55.81 841.89 L55.81 815.56 L60.79 820.63 L63.78 817.69 L31.89 785.19 ZM43.85 837.84 L33.88 837.84
						 L33.88 815.56 L43.85 815.56 L43.85 837.84 ZM51.82 837.84 L45.84 837.84 L45.84 813.54 L31.89 813.54 L31.89
						 837.84 L11.96 837.84 L11.96 811.51 L31.89 791.26 L51.82 811.51 L51.82 837.84 ZM17.94 823.66 L27.9 823.66
						 L27.9 813.54 L17.94 813.54 L17.94 823.66 ZM19.93 815.56 L25.91 815.56 L25.91 821.64 L19.93 821.64 L19.93
						 815.56 ZM37.87 829.74 A1.99129 2.02315 -180 0 0 39.86 827.71 A1.99129 2.02315 -180 0 0 37.87 825.69 A1.99129
						 2.02315 -180 0 0 35.88 827.71 A1.99129 2.02315 -180 0 0 37.87 829.74 Z" class="st1"/>
		</g>
		<g id="shape2-5" v:mID="2" v:groupContext="shape" transform="translate(85.0394,-304.724)">
			<title>Sheet.2</title>
			<desc>Where2Next?</desc>
			<v:textBlock v:margins="rect(4,4,4,4)" v:tabSpace="42.5197"/>
			<v:textRect cx="79.3701" cy="814.961" width="158.75" height="53.8583"/>
			<rect x="0" y="788.031" width="158.74" height="53.8583" class="st2"/>
			<text x="45.53" y="818.56" class="st3" v:langID="3081"><v:paragraph v:horizAlign="1"/><v:tabList/>Where2Next?</text>		</g>
	</g>
</svg>
